<svg xmlns="http://www.w3.org/2000/svg" width="192" height="192" viewBox="0 0 192 192" role="img" aria-label="FocusFlow icon">
  <defs>
    <linearGradient id="iTop" x1="0" y1="0" x2="1" y2="1">
      <stop offset="0" stop-color="#53ccff"/>
      <stop offset="0.45" stop-color="#1f74f1"/>
      <stop offset="1" stop-color="#0a23b8"/>
    </linearGradient>
    <linearGradient id="iMid" x1="0" y1="0" x2="1" y2="1">
      <stop offset="0" stop-color="#64ebff"/>
      <stop offset="0.45" stop-color="#1f7af1"/>
      <stop offset="1" stop-color="#0a28c8"/>
    </linearGradient>
    <linearGradient id="iBot" x1="0" y1="0" x2="1" y2="1">
      <stop offset="0" stop-color="#1f7df6"/>
      <stop offset="0.5" stop-color="#0f35cf"/>
      <stop offset="1" stop-color="#07158f"/>
    </linearGradient>
  </defs>
  <rect width="192" height="192" rx="42" fill="#f0f0f0"/>
  <g transform="translate(30 25)">
    <path d="M20 22c7-10 20-15 38-15h83c20 0 31-4 40-14-5 21-17 34-42 34H65c-23 0-38 8-54 28 3-13 5-23 9-33z" fill="url(#iTop)"/>
    <path d="M14 53c18-19 33-26 56-26h68c20 0 31-3 42-11-8 30-24 41-52 41H72c-24 0-39 7-59 29 1-12 0-20 1-33z" fill="#0d14a7" opacity="0.9"/>
    <path d="M14 73c8-13 23-20 42-20h80c17 0 28-3 38-10-6 23-19 35-45 35H66c-23 0-39 6-56 28 1-11-1-21 4-33z" fill="url(#iMid)"/>
    <path d="M7 113c10-40 31-58 59-58h48c14 0 22-3 30-12-4 29-18 49-43 49H70c-17 0-27 9-33 34-9 11-19 12-38 12 2-8 3-16 8-25z" fill="url(#iBot)"/>
  </g>
</svg>
