<svg xmlns="http://www.w3.org/2000/svg" viewBox="0 0 512 512" role="img" aria-label="FocusFlow mark">
  <defs>
    <radialGradient id="bgGlow" cx="50%" cy="44%" r="56%">
      <stop offset="0%" stop-color="#ecff7a" stop-opacity="0.9"/>
      <stop offset="100%" stop-color="#ecff7a" stop-opacity="0"/>
    </radialGradient>
    <linearGradient id="leafLime" x1="0" y1="0" x2="1" y2="1">
      <stop offset="0%" stop-color="#dcff37"/>
      <stop offset="55%" stop-color="#97e800"/>
      <stop offset="100%" stop-color="#4aa600"/>
    </linearGradient>
    <linearGradient id="leafDeep" x1="0" y1="0.1" x2="1" y2="0.95">
      <stop offset="0%" stop-color="#38a500"/>
      <stop offset="65%" stop-color="#1f7b00"/>
      <stop offset="100%" stop-color="#0d4f00"/>
    </linearGradient>
    <filter id="soft" x="-30%" y="-30%" width="160%" height="160%">
      <feDropShadow dx="0" dy="8" stdDeviation="12" flood-color="#7aba00" flood-opacity="0.38"/>
    </filter>
  </defs>

  <rect width="512" height="512" fill="url(#bgGlow)"/>

  <g transform="translate(72 40)" filter="url(#soft)">
    <path d="M70 74c38-53 93-79 170-79h126c34 0 67-7 98-24-17 58-57 95-124 112l-132 34c-48 13-84 38-130 89 1-39 5-78 22-132z" fill="url(#leafLime)"/>
    <path d="M78 130c46-57 99-85 167-85h132c30 0 59-6 88-20-23 57-63 92-126 106l-124 30c-56 14-96 43-151 101 0-49 5-86 14-132z" fill="url(#leafDeep)"/>

    <path d="M55 236c30-76 83-118 162-132l140-26c42-8 76-22 104-46-14 55-46 97-101 124l-126 62c-48 24-80 57-118 130-18 23-48 35-96 36 9-38 13-84 35-148z" fill="url(#leafLime)"/>
    <path d="M63 278c35-87 93-133 173-148l124-20c39-6 73-20 103-43-18 57-50 101-106 130l-112 58c-53 28-87 67-124 143-24 24-54 37-100 39 12-42 15-89 42-159z" fill="url(#leafDeep)"/>
  </g>
</svg>
