<svg xmlns="http://www.w3.org/2000/svg" viewBox="0 0 512 512" role="img" aria-label="FocusFlow mark">
  <defs>
    <linearGradient id="mTop" x1="0.08" y1="0" x2="0.92" y2="1">
      <stop offset="0" stop-color="#59d9ff"/>
      <stop offset="0.44" stop-color="#1f74f1"/>
      <stop offset="1" stop-color="#0a22ba"/>
    </linearGradient>
    <linearGradient id="mMid" x1="0" y1="0" x2="1" y2="1">
      <stop offset="0" stop-color="#6eefff"/>
      <stop offset="0.46" stop-color="#2280f4"/>
      <stop offset="1" stop-color="#0c2ccc"/>
    </linearGradient>
    <linearGradient id="mBot" x1="0.04" y1="0" x2="0.86" y2="1">
      <stop offset="0" stop-color="#1d87ff"/>
      <stop offset="0.52" stop-color="#103fd7"/>
      <stop offset="1" stop-color="#0a1d95"/>
    </linearGradient>
    <filter id="mGlow" x="-35%" y="-35%" width="170%" height="170%">
      <feGaussianBlur stdDeviation="8" result="blur"/>
      <feColorMatrix in="blur" type="matrix" values="0 0 0 0 0.34 0 0 0 0 0.92 0 0 0 0 1 0 0 0 0.88 0"/>
    </filter>
  </defs>

  <g transform="translate(36 50)">
    <path d="M53 54c18-26 53-40 102-40h224c56 0 84-12 111-39-11 58-45 91-118 91H175c-61 0-101 21-143 77 8-35 10-57 21-89z" fill="url(#mTop)"/>
    <path d="M40 135c42-47 79-65 135-65h181c52 0 82-8 105-30-20 76-60 104-126 104H177c-58 0-95 16-141 69 2-30 0-50 4-78z" fill="#0f149f" opacity="0.92"/>
    <path d="M40 190c18-32 56-51 99-51h211c50 0 78-7 104-27-16 59-49 90-113 90H160c-56 0-92 16-133 69 2-26-2-46 5-81z" fill="url(#mMid)"/>
    <path d="M18 302c25-101 77-148 154-148h130c37 0 61-8 83-31-9 72-45 123-112 123H179c-43 0-68 22-86 85-24 29-50 31-94 31 5-17 8-35 19-60z" fill="url(#mBot)"/>

    <path d="M53 54c18-26 53-40 102-40h224c56 0 84-12 111-39" stroke="#79f6ff" stroke-width="4" fill="none" filter="url(#mGlow)"/>
    <path d="M40 190c18-32 56-51 99-51h211c50 0 78-7 104-27" stroke="#78f9ff" stroke-width="4" fill="none" filter="url(#mGlow)"/>
    <path d="M18 302c25-101 77-148 154-148" stroke="#69edff" stroke-width="4" fill="none" filter="url(#mGlow)"/>
  </g>
</svg>
