<svg xmlns="http://www.w3.org/2000/svg" width="512" height="512" viewBox="0 0 512 512" role="img" aria-label="FocusFlow icon">
  <defs>
    <linearGradient id="iTop" x1="0" y1="0" x2="1" y2="1">
      <stop offset="0" stop-color="#53ccff"/>
      <stop offset="0.45" stop-color="#1f74f1"/>
      <stop offset="1" stop-color="#0a23b8"/>
    </linearGradient>
    <linearGradient id="iMid" x1="0" y1="0" x2="1" y2="1">
      <stop offset="0" stop-color="#64ebff"/>
      <stop offset="0.45" stop-color="#1f7af1"/>
      <stop offset="1" stop-color="#0a28c8"/>
    </linearGradient>
    <linearGradient id="iBot" x1="0" y1="0" x2="1" y2="1">
      <stop offset="0" stop-color="#1f7df6"/>
      <stop offset="0.5" stop-color="#0f35cf"/>
      <stop offset="1" stop-color="#07158f"/>
    </linearGradient>
  </defs>
  <rect width="512" height="512" rx="112" fill="#f0f0f0"/>
  <g transform="translate(82 64)">
    <path d="M53 58c18-26 52-40 100-40h223c56 0 84-12 111-39-12 58-46 92-117 92H174c-61 0-101 21-142 76 7-34 10-56 21-89z" fill="url(#iTop)"/>
    <path d="M40 139c41-46 77-64 133-64h180c52 0 81-8 104-30-19 75-59 103-124 103H176c-57 0-94 16-140 68 2-29 0-49 4-77z" fill="#0d14a7" opacity="0.9"/>
    <path d="M39 192c18-31 54-49 96-49h210c49 0 77-7 103-26-15 58-48 88-111 88H158c-55 0-91 16-132 67 2-25-2-45 5-80z" fill="url(#iMid)"/>
    <path d="M18 301c25-99 76-145 152-145h129c37 0 60-8 82-31-9 71-44 121-110 121H178c-43 0-68 22-85 84-24 29-49 31-93 31 5-17 8-35 18-60z" fill="url(#iBot)"/>
  </g>
</svg>
