<svg xmlns="http://www.w3.org/2000/svg" viewBox="0 0 1024 1024" role="img" aria-label="FocusFlow logo">
  <defs>
    <linearGradient id="topFill" x1="0.08" y1="0" x2="0.92" y2="1">
      <stop offset="0" stop-color="#59d9ff"/>
      <stop offset="0.42" stop-color="#1f74f1"/>
      <stop offset="1" stop-color="#0a22ba"/>
    </linearGradient>
    <linearGradient id="midFill" x1="0" y1="0" x2="1" y2="1">
      <stop offset="0" stop-color="#6eefff"/>
      <stop offset="0.46" stop-color="#2280f4"/>
      <stop offset="1" stop-color="#0c2ccc"/>
    </linearGradient>
    <linearGradient id="botFill" x1="0.04" y1="0" x2="0.86" y2="1">
      <stop offset="0" stop-color="#1d87ff"/>
      <stop offset="0.52" stop-color="#103fd7"/>
      <stop offset="1" stop-color="#0a1d95"/>
    </linearGradient>
    <filter id="glow" x="-35%" y="-35%" width="170%" height="170%">
      <feGaussianBlur stdDeviation="10" result="blur"/>
      <feColorMatrix in="blur" type="matrix" values="0 0 0 0 0.34 0 0 0 0 0.92 0 0 0 0 1 0 0 0 0.9 0"/>
    </filter>
    <filter id="softShadow" x="-25%" y="-25%" width="150%" height="150%">
      <feDropShadow dx="0" dy="9" stdDeviation="8" flood-color="#84a6ff" flood-opacity="0.34"/>
    </filter>
  </defs>

  <g transform="translate(292 168)" filter="url(#softShadow)">
    <path d="M92 87c19-28 52-43 97-43h271c66 0 99-14 125-45-13 64-51 101-131 101H203c-53 0-90 17-134 77 8-41 13-68 23-90z" fill="url(#topFill)"/>
    <path d="M71 143c47-51 89-71 153-71h217c61 0 101-9 145-41-22 87-72 122-169 122H229c-63 0-108 19-163 82 2-38 1-63 5-92z" fill="#0f149f" opacity="0.93"/>
    <path d="M70 197c20-36 63-59 125-59h257c58 0 91-8 121-31-18 68-58 111-140 111H223c-63 0-106 18-156 76 2-34-2-63 3-97z" fill="url(#midFill)"/>
    <path d="M44 330c28-120 84-175 171-175h169c43 0 71-10 95-38-11 83-54 145-132 145H230c-49 0-79 26-98 99-27 33-58 36-112 37 5-22 10-43 24-68z" fill="url(#botFill)"/>

    <path d="M92 87c19-28 52-43 97-43h271c66 0 99-14 125-45" stroke="#79f6ff" stroke-width="4" fill="none" filter="url(#glow)"/>
    <path d="M70 197c20-36 63-59 125-59h257c58 0 91-8 121-31" stroke="#78f9ff" stroke-width="4" fill="none" filter="url(#glow)"/>
    <path d="M44 330c28-120 84-175 171-175" stroke="#69edff" stroke-width="4" fill="none" filter="url(#glow)"/>
  </g>

  <text x="512" y="848" text-anchor="middle" font-family="'Poppins', 'Avenir Next', 'IBM Plex Sans', Arial, sans-serif" font-size="124" font-weight="700" fill="#072870">FocusFlow</text>
</svg>
