<svg xmlns="http://www.w3.org/2000/svg" viewBox="0 0 1024 1024" role="img" aria-label="FocusFlow logo">
  <defs>
    <linearGradient id="topStroke" x1="0" y1="0" x2="1" y2="1">
      <stop offset="0" stop-color="#50d6ff"/>
      <stop offset="0.5" stop-color="#1f72f0"/>
      <stop offset="1" stop-color="#00d8ff"/>
    </linearGradient>
    <linearGradient id="topFill" x1="0.1" y1="0" x2="0.9" y2="1">
      <stop offset="0" stop-color="#53ccff"/>
      <stop offset="0.4" stop-color="#186df2"/>
      <stop offset="1" stop-color="#0a23b8"/>
    </linearGradient>
    <linearGradient id="midFill" x1="0" y1="0" x2="1" y2="1">
      <stop offset="0" stop-color="#60ebff"/>
      <stop offset="0.38" stop-color="#1f7af1"/>
      <stop offset="1" stop-color="#0a28c8"/>
    </linearGradient>
    <linearGradient id="botFill" x1="0.05" y1="0" x2="0.85" y2="1">
      <stop offset="0" stop-color="#1f7df6"/>
      <stop offset="0.45" stop-color="#0f35cf"/>
      <stop offset="1" stop-color="#07158f"/>
    </linearGradient>
    <filter id="glow" x="-30%" y="-30%" width="160%" height="160%">
      <feGaussianBlur stdDeviation="9" result="blur"/>
      <feColorMatrix in="blur" type="matrix" values="0 0 0 0 0.26 0 0 0 0 0.89 0 0 0 0 1 0 0 0 0.95 0"/>
    </filter>
    <filter id="softShadow" x="-20%" y="-20%" width="140%" height="140%">
      <feDropShadow dx="0" dy="8" stdDeviation="8" flood-color="#94a6ff" flood-opacity="0.35"/>
    </filter>
  </defs>

  <rect width="1024" height="1024" fill="#f0f0f0"/>

  <g transform="translate(295 246)" filter="url(#softShadow)">
    <path d="M89 66c18-26 50-40 93-40h266c65 0 97-13 123-43-12 63-49 99-129 99H196c-53 0-89 17-132 74 9-38 14-66 25-90z" fill="url(#topFill)"/>
    <path d="M67 118c45-48 86-67 149-67h212c59 0 97-9 141-39-21 84-69 118-164 118H221c-61 0-104 18-158 79 3-37 2-61 4-91z" fill="#0d14a7" opacity="0.92"/>
    <path d="M68 171c19-34 61-56 121-56h252c57 0 89-8 118-29-18 66-57 106-136 106H217c-61 0-103 17-152 73 2-33-2-62 3-94z" fill="url(#midFill)"/>
    <path d="M43 297c27-116 82-169 168-169h165c42 0 69-10 92-36-11 80-52 140-128 140H227c-48 0-77 25-95 96-26 31-56 34-109 35 6-21 10-41 20-66z" fill="url(#botFill)"/>

    <path d="M89 66c18-26 50-40 93-40h266c65 0 97-13 123-43" stroke="url(#topStroke)" stroke-width="4" fill="none" filter="url(#glow)"/>
    <path d="M68 171c19-34 61-56 121-56h252c57 0 89-8 118-29" stroke="#5cf2ff" stroke-width="4" fill="none" filter="url(#glow)"/>
    <path d="M43 297c27-116 82-169 168-169" stroke="#5cf2ff" stroke-width="4" fill="none" filter="url(#glow)"/>
  </g>

  <text x="512" y="755" text-anchor="middle" font-family="'Poppins', 'Avenir Next', 'IBM Plex Sans', Arial, sans-serif" font-size="102" font-weight="600" fill="#072870">FocusFlow</text>
</svg>
