<svg xmlns="http://www.w3.org/2000/svg" width="1080" height="720" viewBox="0 0 1080 720" role="img" aria-label="Study notes preview">
  <rect width="1080" height="720" fill="#f6f9ff"/>
  <rect x="70" y="60" width="940" height="600" rx="36" fill="#ffffff" stroke="#dbe4f1"/>
  <rect x="120" y="120" width="310" height="490" rx="16" fill="#f8fafc" stroke="#d7e2ef"/>
  <rect x="460" y="120" width="500" height="80" rx="14" fill="#eef4ff"/>
  <rect x="460" y="230" width="500" height="380" rx="16" fill="#f8fafc" stroke="#d7e2ef"/>
  <rect x="145" y="165" width="250" height="14" rx="7" fill="#dbe4f1"/>
  <rect x="145" y="206" width="210" height="12" rx="6" fill="#e2e8f0"/>
  <rect x="145" y="244" width="220" height="12" rx="6" fill="#e2e8f0"/>
  <rect x="490" y="160" width="230" height="16" rx="8" fill="#c7d2fe"/>
  <rect x="490" y="270" width="430" height="12" rx="6" fill="#dbe4f1"/>
  <rect x="490" y="306" width="400" height="12" rx="6" fill="#e2e8f0"/>
  <rect x="490" y="342" width="420" height="12" rx="6" fill="#e2e8f0"/>
  <text x="120" y="96" font-family="Inter,Arial,sans-serif" font-size="26" font-weight="700" fill="#0f172a">Notes and focus tools snapshot</text>
</svg>
